<svg width="16" height="16" viewBox="0 0 16 16" fill="none" xmlns="http://www.w3.org/2000/svg">
<path d="M14 3.98665C11.78 3.76665 9.54667 3.65332 7.32 3.65332C6 3.65332 4.68 3.71999 3.36 3.85332L2 3.98665" stroke="white" stroke-width="1.5" stroke-linecap="round" stroke-linejoin="round"/>
<path d="M5.66663 3.31325L5.81329 2.43992C5.91996 1.80659 5.99996 1.33325 7.12663 1.33325H8.87329C9.99996 1.33325 10.0866 1.83325 10.1866 2.44659L10.3333 3.31325" stroke="white" stroke-width="1.5" stroke-linecap="round" stroke-linejoin="round"/>
<path d="M12.5669 6.09302L12.1336 12.8064C12.0603 13.853 12.0003 14.6664 10.1403 14.6664H5.86026C4.00026 14.6664 3.94026 13.853 3.86693 12.8064L3.43359 6.09302" stroke="white" stroke-width="1.5" stroke-linecap="round" stroke-linejoin="round"/>
<path d="M6.88672 11H9.10672" stroke="white" stroke-width="1.5" stroke-linecap="round" stroke-linejoin="round"/>
<path d="M6.33337 8.33325H9.66671" stroke="white" stroke-width="1.5" stroke-linecap="round" stroke-linejoin="round"/>
</svg>
